<?xml version="1.0" encoding="UTF-8" standalone="no"?>
<!-- Created with Inkscape (http://www.inkscape.org/) -->

<svg
   width="73.278732mm"
   height="73.278198mm"
   viewBox="0 0 73.278732 73.278198"
   version="1.1"
   id="svg185"
   xml:space="preserve"
   inkscape:version="1.2.1 (9c6d41e410, 2022-07-14)"
   sodipodi:docname="drawing-1.svg"
   xmlns:inkscape="http://www.inkscape.org/namespaces/inkscape"
   xmlns:sodipodi="http://sodipodi.sourceforge.net/DTD/sodipodi-0.dtd"
   xmlns="http://www.w3.org/2000/svg"
   xmlns:svg="http://www.w3.org/2000/svg"><sodipodi:namedview
     id="namedview187"
     pagecolor="#505050"
     bordercolor="#eeeeee"
     borderopacity="1"
     inkscape:showpageshadow="0"
     inkscape:pageopacity="0"
     inkscape:pagecheckerboard="0"
     inkscape:deskcolor="#505050"
     inkscape:document-units="mm"
     showgrid="false"
     inkscape:zoom="0.16850579"
     inkscape:cx="8.9017714"
     inkscape:cy="1216.5754"
     inkscape:window-width="1366"
     inkscape:window-height="715"
     inkscape:window-x="-8"
     inkscape:window-y="-8"
     inkscape:window-maximized="1"
     inkscape:current-layer="layer1" /><defs
     id="defs182" /><g
     inkscape:label="Layer 1"
     inkscape:groupmode="layer"
     id="layer1"
     transform="translate(131.34598,-136.72369)"><path
       id="path358"
       style="fill:#ffffff;stroke:#e96840;stroke-width:0"
       d="m -94.706369,136.72369 a 36.639252,36.639252 0 0 0 -36.639621,36.63911 36.639252,36.639252 0 0 0 36.639621,36.6391 36.639252,36.639252 0 0 0 36.639111,-36.6391 36.639252,36.639252 0 0 0 -36.639111,-36.63911 z m -0.02584,14.4942 c 1.523693,-9.1e-4 2.095307,0.0383 3.345015,0.22996 2.511316,0.38529 4.879065,1.1713 7.077088,2.34973 5.545964,2.97338 9.591334,8.14794 11.100614,14.19862 0.405613,1.6261 0.603156,3.1104 0.644405,4.84105 0.04988,2.09297 -0.156735,3.94446 -0.665076,5.95674 -1.858853,7.35825 -7.467898,13.33006 -14.711246,15.66313 -1.088724,0.35067 -2.750817,0.73809 -3.510897,0.81803 l -0.221175,0.0233 v -7.89254 -7.89255 l 2.548165,-0.01 2.547648,-0.0103 0.06666,-0.50023 c 0.321317,-2.4157 0.728337,-5.45212 0.746725,-5.56917 l 0.02274,-0.14417 h -2.96571 -2.966227 v -1.8185 c 0,-2.4755 0.07652,-3.07199 0.505395,-3.95169 0.170457,-0.34964 0.242781,-0.45046 0.529167,-0.73588 0.376756,-0.37548 0.663724,-0.55151 1.177706,-0.72243 0.318454,-0.1059 0.41493,-0.11832 1.199927,-0.15607 0.469466,-0.0225 1.2794,-0.0413 1.799373,-0.0413 h 0.945162 l -0.0098,-2.62464 -0.0098,-2.62465 -0.635104,-0.10749 c -1.9112,-0.32388 -3.404715,-0.43707 -4.501534,-0.34106 -2.011449,0.17607 -3.316319,0.56101 -4.433321,1.30793 -1.642752,1.09849 -2.819026,3.15609 -3.170349,5.54436 -0.05538,0.37647 -0.06729,0.87708 -0.08061,3.35691 l -0.01602,2.91455 h -2.767312 -2.76779 v 3.1166 3.11609 h 2.7683 2.768312 l -0.02274,7.83932 c -0.01237,4.31162 -0.0263,7.84431 -0.03101,7.85016 -0.01754,0.0217 -1.059527,-0.1944 -1.647442,-0.34158 -6.89899,-1.72716 -12.6146,-6.7327 -15.2461,-13.35216 -0.75598,-1.90164 -1.23486,-3.8928 -1.46503,-6.09316 -0.095,-0.90826 -0.0949,-3.22954 0,-4.11706 0.22792,-2.13171 0.62474,-3.85206 1.31517,-5.69836 1.54253,-4.12496 4.31483,-7.71462 7.98246,-10.33684 2.77303,-1.98262 6.16417,-3.34254 9.560653,-3.83388 1.224567,-0.17715 1.715239,-0.20963 3.193604,-0.21084 z m 0.01912,44.10791 c 1.509508,0 2.736671,0.008 2.726449,0.0186 -0.09027,0.0902 -2.973484,0.20065 -3.899504,0.14934 v 5.2e-4 c -0.432337,-0.024 -1.533676,-0.13065 -1.553394,-0.15038 -0.0099,-0.01 1.216941,-0.0181 2.726449,-0.0181 z"
       inkscape:export-filename=".\fblogo.svg"
       inkscape:export-xdpi="96"
       inkscape:export-ydpi="96" /></g></svg>
