<?xml version="1.0" encoding="UTF-8" standalone="no"?>
<!-- Created with Inkscape (http://www.inkscape.org/) -->

<svg
   width="73.278214mm"
   height="73.278214mm"
   viewBox="0 0 73.278214 73.278214"
   version="1.1"
   id="svg185"
   xml:space="preserve"
   inkscape:version="1.2.1 (9c6d41e410, 2022-07-14)"
   sodipodi:docname="drawing-1.svg"
   xmlns:inkscape="http://www.inkscape.org/namespaces/inkscape"
   xmlns:sodipodi="http://sodipodi.sourceforge.net/DTD/sodipodi-0.dtd"
   xmlns="http://www.w3.org/2000/svg"
   xmlns:svg="http://www.w3.org/2000/svg"><sodipodi:namedview
     id="namedview187"
     pagecolor="#505050"
     bordercolor="#eeeeee"
     borderopacity="1"
     inkscape:showpageshadow="0"
     inkscape:pageopacity="0"
     inkscape:pagecheckerboard="0"
     inkscape:deskcolor="#505050"
     inkscape:document-units="mm"
     showgrid="false"
     inkscape:zoom="0.16850579"
     inkscape:cx="8.9017714"
     inkscape:cy="1216.5754"
     inkscape:window-width="1366"
     inkscape:window-height="715"
     inkscape:window-x="-8"
     inkscape:window-y="-8"
     inkscape:window-maximized="1"
     inkscape:current-layer="layer1" /><defs
     id="defs182" /><g
     inkscape:label="Layer 1"
     inkscape:groupmode="layer"
     id="layer1"
     transform="translate(-97.643648,-227.68067)"><path
       id="circle291"
       style="fill:#ffffff;stroke:#e96840;stroke-width:0"
       d="m 134.28276,227.68068 a 36.639252,36.639252 0 0 0 -36.639108,36.6391 36.639252,36.639252 0 0 0 36.639108,36.63911 36.639252,36.639252 0 0 0 36.63911,-36.63911 36.639252,36.639252 0 0 0 -36.63911,-36.6391 z m -15.42231,16.25068 7.14116,10e-4 4.87826,6.45335 c 2.68318,3.5492 4.90096,6.47975 4.92786,6.51226 l 0.0486,0.0589 5.69474,-6.51227 5.69423,-6.51175 3.45612,-0.001 c 3.33615,-0.001 3.4548,-1e-5 3.43028,0.0341 -0.014,0.0194 -3.40981,3.90386 -7.54683,8.63203 -4.13702,4.72816 -7.52013,8.60321 -7.51789,8.61136 0.002,0.008 3.99709,5.29399 8.8775,11.74605 4.88041,6.45208 8.87336,11.73594 8.87336,11.74192 0,0.006 -3.12872,0.0106 -6.95307,0.0103 l -6.95358,-5.2e-4 -2.43912,-3.19102 c -6.49921,-8.50215 -8.40242,-10.9894 -8.4336,-11.02155 -0.0324,-0.0334 -0.30451,0.27437 -6.26938,7.08949 l -6.2358,7.12411 h -3.46025 -3.46077 l 0.0496,-0.0537 c 0.097,-0.1043 16.08274,-18.38354 16.09669,-18.40611 0.009,-0.0141 -3.27778,-4.32831 -8.4832,-11.13627 -4.67353,-6.11232 -8.51049,-11.12893 -8.52662,-11.14764 -0.0279,-0.0324 0.31249,-0.034 7.11172,-0.0331 z m 3.00498,3.92586 c -1.64042,-5.4e-4 -2.05371,0.004 -2.04174,0.0238 0.008,0.0134 4.03929,5.28554 8.9576,11.71557 4.9183,6.43002 10.3504,13.53174 12.07161,15.78198 1.7212,2.25025 3.31735,4.33817 3.54655,4.63951 l 0.41652,0.54777 1.92184,10e-4 c 1.53488,9.5e-4 1.91769,-0.004 1.90221,-0.0232 -0.0107,-0.0134 -1.01165,-1.33587 -2.22415,-2.93936 -2.0873,-2.76038 -4.03694,-5.3389 -9.2382,-12.21579 -1.24109,-1.64091 -3.34144,-4.41804 -4.66741,-6.1712 -1.32597,-1.75316 -3.4863,-4.60863 -4.80023,-6.34586 -1.31392,-1.73723 -2.70386,-3.5761 -3.0887,-4.08606 l -0.6997,-0.92707 z" /></g></svg>
