<?xml version="1.0" encoding="UTF-8" standalone="no"?>
<!-- Created with Inkscape (http://www.inkscape.org/) -->

<svg
   width="73.278214mm"
   height="73.278214mm"
   viewBox="0 0 73.278214 73.278214"
   version="1.1"
   id="svg185"
   xml:space="preserve"
   inkscape:version="1.2.1 (9c6d41e410, 2022-07-14)"
   sodipodi:docname="drawing-1.svg"
   xmlns:inkscape="http://www.inkscape.org/namespaces/inkscape"
   xmlns:sodipodi="http://sodipodi.sourceforge.net/DTD/sodipodi-0.dtd"
   xmlns="http://www.w3.org/2000/svg"
   xmlns:svg="http://www.w3.org/2000/svg"><sodipodi:namedview
     id="namedview187"
     pagecolor="#505050"
     bordercolor="#eeeeee"
     borderopacity="1"
     inkscape:showpageshadow="0"
     inkscape:pageopacity="0"
     inkscape:pagecheckerboard="0"
     inkscape:deskcolor="#505050"
     inkscape:document-units="mm"
     showgrid="false"
     inkscape:zoom="0.16850579"
     inkscape:cx="8.9017714"
     inkscape:cy="1216.5754"
     inkscape:window-width="1366"
     inkscape:window-height="715"
     inkscape:window-x="-8"
     inkscape:window-y="-8"
     inkscape:window-maximized="1"
     inkscape:current-layer="layer1" /><defs
     id="defs182" /><g
     inkscape:label="Layer 1"
     inkscape:groupmode="layer"
     id="layer1"
     transform="translate(-142.42542,-111.86087)"><path
       id="circle292"
       style="fill:#ffffff;stroke:#e96840;stroke-width:0"
       d="m 179.06452,111.86087 a 36.639252,36.639252 0 0 0 -36.6391,36.63911 36.639252,36.639252 0 0 0 36.6391,36.63911 36.639252,36.639252 0 0 0 36.63911,-36.63911 36.639252,36.639252 0 0 0 -36.63911,-36.63911 z m -14.03325,14.85698 h 14.03325 14.03325 l 0.87954,0.24184 c 1.64974,0.45304 3.06655,1.26304 4.21214,2.40864 1.1456,1.14559 1.95613,2.56241 2.40916,4.21215 l 0.24133,0.88005 v 14.03325 14.03325 l -0.24133,0.88005 c -0.45303,1.64973 -1.26356,3.06655 -2.40916,4.21215 -1.14602,1.14601 -2.56385,1.95644 -4.21214,2.40812 l -0.87954,0.24133 -13.68133,0.0124 c -7.52472,0.007 -13.92871,-0.0199 -14.23117,-0.06 v -5.1e-4 c -1.29887,-0.17168 -3.09969,-0.87748 -4.11345,-1.61231 -0.62265,-0.45134 -1.66617,-1.50008 -2.11615,-2.127 -0.54581,-0.76045 -1.14453,-2.05206 -1.42523,-3.07423 l -0.24185,-0.88005 v -14.03325 -14.03325 l 0.24185,-0.88005 c 0.45304,-1.64974 1.26305,-3.06656 2.40863,-4.21215 1.1456,-1.1456 2.56241,-1.9556 4.21215,-2.40864 z m 14.03325,1.36219 c -6.75399,0 -13.50819,0.031 -13.90147,0.093 -3.27524,0.51673 -5.90251,3.14399 -6.41925,6.41924 -0.12409,0.78656 -0.12409,27.01638 0,27.80296 0.51405,3.25814 3.10468,5.86075 6.38927,6.41924 0.23422,0.0398 6.6224,0.0667 14.19552,0.0599 l 13.76918,-0.0124 0.77412,-0.24287 c 2.67072,-0.8377 4.48032,-2.6473 5.31802,-5.31803 l 0.24236,-0.77411 v -14.03325 -14.03325 l -0.24236,-0.77412 c -0.93361,-2.97651 -3.27194,-5.04754 -6.22443,-5.51335 -0.39329,-0.062 -7.14696,-0.093 -13.90096,-0.093 z m 12.66951,5.63273 c 0.89112,0 1.74565,0.63337 1.99058,1.47588 0.48034,1.65234 -0.9603,3.11521 -2.60346,2.64376 -0.64351,-0.18464 -1.16941,-0.70175 -1.36581,-1.34255 -0.16676,-0.5441 -0.16683,-0.78351 -5.1e-4,-1.34359 0.23799,-0.80142 1.11079,-1.4335 1.9792,-1.4335 z m 0,1.40766 c -0.36171,0 -0.70383,0.34213 -0.70383,0.70384 0,0.61507 0.75524,0.92423 1.19166,0.48782 0.43641,-0.43641 0.12725,-1.19166 -0.48783,-1.19166 z m -12.71033,2.15284 c 0.85547,-0.005 1.70869,0.0673 2.37246,0.21653 4.35055,0.97846 7.64036,4.2423 8.64444,8.57674 0.28785,1.24257 0.325,3.2529 0.0827,4.46691 -0.46703,2.34025 -1.45626,4.19426 -3.13934,5.88284 -1.624,1.62929 -3.35344,2.57533 -5.63222,3.0825 -0.85868,0.19111 -2.75744,0.28216 -3.60701,0.1726 -4.15839,-0.53625 -7.70466,-3.30665 -9.18291,-7.17424 -0.53217,-1.39234 -0.69918,-2.35036 -0.69918,-4.00337 0,-1.18784 0.0361,-1.61174 0.19844,-2.33164 0.9819,-4.35323 4.23667,-7.63479 8.57622,-8.64599 0.67279,-0.15677 1.53095,-0.23808 2.38642,-0.24288 z m 0.0284,1.37666 c -1.04972,-4e-5 -2.09617,0.15955 -3.05718,0.48215 -4.04597,1.35819 -6.7846,5.13711 -6.7846,9.3617 0,4.74212 3.42554,8.82636 8.15196,9.7193 1.07426,0.20296 3.00299,0.12596 4.12171,-0.16433 2.04617,-0.53094 3.95044,-1.76363 5.27358,-3.41426 0.74591,-0.93053 1.55381,-2.53875 1.86966,-3.72122 0.21223,-0.79452 0.23512,-1.02908 0.23512,-2.41949 0,-1.39246 -0.0229,-1.6238 -0.23616,-2.41949 -0.79378,-2.96156 -2.89443,-5.41566 -5.68492,-6.64042 -1.18444,-0.51985 -2.53953,-0.78388 -3.88917,-0.78394 z" /></g></svg>
