<?xml version="1.0" encoding="UTF-8" standalone="no"?>
<!-- Created with Inkscape (http://www.inkscape.org/) -->

<svg
   width="210mm"
   height="297mm"
   viewBox="0 0 210 297"
   version="1.1"
   id="svg185"
   xml:space="preserve"
   inkscape:version="1.2.1 (9c6d41e410, 2022-07-14)"
   sodipodi:docname="drawing-1.svg"
   xmlns:inkscape="http://www.inkscape.org/namespaces/inkscape"
   xmlns:sodipodi="http://sodipodi.sourceforge.net/DTD/sodipodi-0.dtd"
   xmlns="http://www.w3.org/2000/svg"
   xmlns:svg="http://www.w3.org/2000/svg"><sodipodi:namedview
     id="namedview187"
     pagecolor="#505050"
     bordercolor="#eeeeee"
     borderopacity="1"
     inkscape:showpageshadow="0"
     inkscape:pageopacity="0"
     inkscape:pagecheckerboard="0"
     inkscape:deskcolor="#505050"
     inkscape:document-units="mm"
     showgrid="false"
     inkscape:zoom="0.33701158"
     inkscape:cx="286.34031"
     inkscape:cy="596.41868"
     inkscape:window-width="1366"
     inkscape:window-height="715"
     inkscape:window-x="-8"
     inkscape:window-y="-8"
     inkscape:window-maximized="1"
     inkscape:current-layer="layer1" /><defs
     id="defs182" /><g
     inkscape:label="Layer 1"
     inkscape:groupmode="layer"
     id="layer1"><path
       id="path358"
       style="fill:#ffffff;stroke:#e96840;stroke-width:0"
       d="m -94.706369,136.72369 a 36.639252,36.639252 0 0 0 -36.639621,36.63911 36.639252,36.639252 0 0 0 36.639621,36.6391 36.639252,36.639252 0 0 0 36.639111,-36.6391 36.639252,36.639252 0 0 0 -36.639111,-36.63911 z m -0.02584,14.4942 c 1.523693,-9.1e-4 2.095307,0.0383 3.345015,0.22996 2.511316,0.38529 4.879065,1.1713 7.077088,2.34973 5.545964,2.97338 9.591334,8.14794 11.100614,14.19862 0.405613,1.6261 0.603156,3.1104 0.644405,4.84105 0.04988,2.09297 -0.156735,3.94446 -0.665076,5.95674 -1.858853,7.35825 -7.467898,13.33006 -14.711246,15.66313 -1.088724,0.35067 -2.750817,0.73809 -3.510897,0.81803 l -0.221175,0.0233 v -7.89254 -7.89255 l 2.548165,-0.01 2.547648,-0.0103 0.06666,-0.50023 c 0.321317,-2.4157 0.728337,-5.45212 0.746725,-5.56917 l 0.02274,-0.14417 h -2.96571 -2.966227 v -1.8185 c 0,-2.4755 0.07652,-3.07199 0.505395,-3.95169 0.170457,-0.34964 0.242781,-0.45046 0.529167,-0.73588 0.376756,-0.37548 0.663724,-0.55151 1.177706,-0.72243 0.318454,-0.1059 0.41493,-0.11832 1.199927,-0.15607 0.469466,-0.0225 1.2794,-0.0413 1.799373,-0.0413 h 0.945162 l -0.0098,-2.62464 -0.0098,-2.62465 -0.635104,-0.10749 c -1.9112,-0.32388 -3.404715,-0.43707 -4.501534,-0.34106 -2.011449,0.17607 -3.316319,0.56101 -4.433321,1.30793 -1.642752,1.09849 -2.819026,3.15609 -3.170349,5.54436 -0.05538,0.37647 -0.06729,0.87708 -0.08061,3.35691 l -0.01602,2.91455 h -2.767312 -2.76779 v 3.1166 3.11609 h 2.7683 2.768312 l -0.02274,7.83932 c -0.01237,4.31162 -0.0263,7.84431 -0.03101,7.85016 -0.01754,0.0217 -1.059527,-0.1944 -1.647442,-0.34158 -6.89899,-1.72716 -12.6146,-6.7327 -15.2461,-13.35216 -0.75598,-1.90164 -1.23486,-3.8928 -1.46503,-6.09316 -0.095,-0.90826 -0.0949,-3.22954 0,-4.11706 0.22792,-2.13171 0.62474,-3.85206 1.31517,-5.69836 1.54253,-4.12496 4.31483,-7.71462 7.98246,-10.33684 2.77303,-1.98262 6.16417,-3.34254 9.560653,-3.83388 1.224567,-0.17715 1.715239,-0.20963 3.193604,-0.21084 z m 0.01912,44.10791 c 1.509508,0 2.736671,0.008 2.726449,0.0186 -0.09027,0.0902 -2.973484,0.20065 -3.899504,0.14934 v 5.2e-4 c -0.432337,-0.024 -1.533676,-0.13065 -1.553394,-0.15038 -0.0099,-0.01 1.216941,-0.0181 2.726449,-0.0181 z"
       inkscape:export-filename=".\01fblogo.svg"
       inkscape:export-xdpi="96"
       inkscape:export-ydpi="96" /><path
       id="circle291"
       style="fill:#ffffff;stroke:#e96840;stroke-width:0"
       d="M 134.28276 227.68068 A 36.639252 36.639252 0 0 0 97.643652 264.31978 A 36.639252 36.639252 0 0 0 134.28276 300.95889 A 36.639252 36.639252 0 0 0 170.92187 264.31978 A 36.639252 36.639252 0 0 0 134.28276 227.68068 z M 118.86045 243.93136 L 126.00161 243.9324 L 130.87987 250.38575 C 133.56305 253.93495 135.78083 256.8655 135.80773 256.89801 L 135.85631 256.95693 L 141.55105 250.44466 L 147.24528 243.93291 L 150.7014 243.93188 C 154.03755 243.93088 154.1562 243.93187 154.13168 243.96599 C 154.11768 243.98539 150.72187 247.86985 146.58485 252.59802 C 142.44783 257.32618 139.06472 261.20123 139.06696 261.20938 C 139.06896 261.21738 143.06405 266.50337 147.94446 272.95543 C 152.82487 279.40751 156.81782 284.69137 156.81782 284.69735 C 156.81782 284.70335 153.6891 284.70799 149.86475 284.70769 L 142.91117 284.70717 L 140.47205 281.51615 C 133.97284 273.014 132.06963 270.52675 132.03845 270.4946 C 132.00605 270.4612 131.73394 270.76897 125.76907 277.58409 L 119.53327 284.7082 L 116.07302 284.7082 L 112.61225 284.7082 L 112.66186 284.65446 C 112.75886 284.55016 128.7446 266.27092 128.75855 266.24835 C 128.76755 266.23425 125.48077 261.92004 120.27535 255.11208 C 115.60182 248.99976 111.76486 243.98315 111.74873 243.96444 C 111.72083 243.93204 112.06122 243.93046 118.86045 243.93136 z M 121.86543 247.85722 C 120.22501 247.85668 119.81172 247.86139 119.82369 247.88099 C 119.83169 247.89439 123.86298 253.16653 128.78129 259.59656 C 133.69959 266.02658 139.13169 273.1283 140.8529 275.37854 C 142.5741 277.62879 144.17025 279.71671 144.39945 280.01805 L 144.81597 280.56582 L 146.73781 280.56685 C 148.27269 280.5678 148.6555 280.5627 148.64002 280.5436 C 148.62932 280.5302 147.62837 279.20773 146.41587 277.60424 C 144.32857 274.84386 142.37893 272.26534 137.17767 265.38845 C 135.93658 263.74754 133.83623 260.97041 132.51026 259.21725 C 131.18429 257.46409 129.02396 254.60862 127.71003 252.87139 C 126.39611 251.13416 125.00617 249.29529 124.62133 248.78533 L 123.92163 247.85826 L 121.86543 247.85722 z "
       inkscape:export-filename=".\02xlogo.svg"
       inkscape:export-xdpi="96"
       inkscape:export-ydpi="96" /><path
       id="circle292"
       style="fill:#ffffff;stroke:#e96840;stroke-width:0"
       d="M 179.06452 111.86087 A 36.639252 36.639252 0 0 0 142.42542 148.49998 A 36.639252 36.639252 0 0 0 179.06452 185.13909 A 36.639252 36.639252 0 0 0 215.70363 148.49998 A 36.639252 36.639252 0 0 0 179.06452 111.86087 z M 165.03127 126.71785 L 179.06452 126.71785 L 193.09777 126.71785 L 193.97731 126.95969 C 195.62705 127.41273 197.04386 128.22273 198.18945 129.36833 C 199.33505 130.51392 200.14558 131.93074 200.59861 133.58048 L 200.83994 134.46053 L 200.83994 148.49378 L 200.83994 162.52703 L 200.59861 163.40708 C 200.14558 165.05681 199.33505 166.47363 198.18945 167.61923 C 197.04343 168.76524 195.6256 169.57567 193.97731 170.02735 L 193.09777 170.26868 L 179.41644 170.28108 C 171.89172 170.28808 165.48773 170.26113 165.18527 170.22113 L 165.18527 170.22062 C 163.8864 170.04894 162.08558 169.34314 161.07182 168.60831 C 160.44917 168.15697 159.40565 167.10823 158.95567 166.48131 C 158.40986 165.72086 157.81114 164.42925 157.53044 163.40708 L 157.28859 162.52703 L 157.28859 148.49378 L 157.28859 134.46053 L 157.53044 133.58048 C 157.98348 131.93074 158.79349 130.51392 159.93907 129.36833 C 161.08467 128.22273 162.50148 127.41273 164.15122 126.95969 L 165.03127 126.71785 z M 179.06452 128.08004 C 172.31053 128.08004 165.55633 128.11101 165.16305 128.17306 C 161.88781 128.68979 159.26054 131.31705 158.7438 134.5923 C 158.61971 135.37886 158.61971 161.60868 158.7438 162.39526 C 159.25785 165.6534 161.84848 168.25601 165.13307 168.8145 C 165.36729 168.8543 171.75547 168.88125 179.32859 168.87445 L 193.09777 168.86204 L 193.87189 168.61917 C 196.54261 167.78147 198.35221 165.97187 199.18991 163.30114 L 199.43227 162.52703 L 199.43227 148.49378 L 199.43227 134.46053 L 199.18991 133.68641 C 198.2563 130.7099 195.91797 128.63887 192.96548 128.17306 C 192.57219 128.11101 185.81852 128.08004 179.06452 128.08004 z M 191.73403 133.71277 C 192.62515 133.71277 193.47968 134.34614 193.72461 135.18865 C 194.20495 136.84099 192.76431 138.30386 191.12115 137.83241 C 190.47764 137.64777 189.95174 137.13066 189.75534 136.48986 C 189.58858 135.94576 189.58851 135.70635 189.75483 135.14627 C 189.99282 134.34485 190.86562 133.71277 191.73403 133.71277 z M 191.73403 135.12043 C 191.37232 135.12043 191.0302 135.46256 191.0302 135.82427 C 191.0302 136.43934 191.78544 136.7485 192.22186 136.31209 C 192.65827 135.87568 192.34911 135.12043 191.73403 135.12043 z M 179.0237 137.27327 C 179.87917 137.26848 180.73239 137.34053 181.39616 137.4898 C 185.74671 138.46826 189.03652 141.7321 190.0406 146.06654 C 190.32845 147.30911 190.3656 149.31944 190.12328 150.53345 C 189.65625 152.8737 188.66702 154.72771 186.98394 156.41629 C 185.35994 158.04558 183.6305 158.99162 181.35172 159.49879 C 180.49304 159.6899 178.59428 159.78095 177.74471 159.67139 C 173.58632 159.13514 170.04005 156.36474 168.5618 152.49715 C 168.02963 151.10481 167.86262 150.14679 167.86262 148.49378 C 167.86262 147.30594 167.89871 146.88204 168.06106 146.16214 C 169.04296 141.80891 172.29773 138.52735 176.63728 137.51615 C 177.31007 137.35938 178.16823 137.27807 179.0237 137.27327 z M 179.05212 138.64993 C 178.0024 138.64989 176.95595 138.80948 175.99494 139.13208 C 171.94897 140.49027 169.21034 144.26919 169.21034 148.49378 C 169.21034 153.2359 172.63588 157.32014 177.3623 158.21308 C 178.43656 158.41604 180.36529 158.33904 181.48401 158.04875 C 183.53018 157.51781 185.43445 156.28512 186.75759 154.63449 C 187.5035 153.70396 188.3114 152.09574 188.62725 150.91327 C 188.83948 150.11875 188.86237 149.88419 188.86237 148.49378 C 188.86237 147.10132 188.83952 146.86998 188.62621 146.07429 C 187.83243 143.11273 185.73178 140.65863 182.94129 139.43387 C 181.75685 138.91402 180.40176 138.64999 179.05212 138.64993 z "
       inkscape:export-filename=".\03iglogo.svg"
       inkscape:export-xdpi="96"
       inkscape:export-ydpi="96" /><circle
       style="fill:#ffffff;stroke:#e96840;stroke-width:0"
       id="circle316"
       cx="105.78592"
       cy="75.221497"
       r="36.639252"
       inkscape:export-filename="01_fb_logo.png"
       inkscape:export-xdpi="96"
       inkscape:export-ydpi="96" /></g></svg>
